<svg width="84" height="57" viewBox="0 0 84 57" fill="none" xmlns="http://www.w3.org/2000/svg">
<path d="M43.6957 22.8983L62.2197 17.7781L66.797 34.3382L48.273 39.4584L43.6957 22.8983Z" fill="black"/>
<path d="M41.6014 33.7742L44.2507 40.451L45.0166 40.9383L17.3388 48.5886L16.4939 45.5316L13.1302 46.4614L11.8988 42.0062L41.6014 33.7742Z" fill="#191F26"/>
<path d="M12.6162 44.5994L11.8995 42.0063L41.6021 33.7742L42.6082 36.3094L12.6162 44.5994Z" fill="#11151A"/>
<path style="mix-blend-mode:multiply" d="M37.7325 33.8085C37.7325 33.8085 39.2082 36.9275 39.7266 37.7519C40.2405 38.576 40.4721 38.603 41.4202 38.3409L43.574 37.7456L44.0521 39.5017L41.1776 40.2962C40.3911 40.5136 39.6698 40.7321 38.9137 39.6078C38.1578 38.4791 35.8034 34.7367 35.8034 34.7367L37.7325 33.8085Z" fill="url(#paint0_linear_38_1020)"/>
<path d="M37.7358 34.3494C37.7358 34.3494 39.1946 37.3541 39.6725 38.1015C40.1525 38.8454 40.371 38.8731 41.2671 38.6255L43.299 38.0638L43.7725 39.2486L41.0624 39.9977C40.3184 40.2033 39.7003 40.3947 38.9983 39.3759C38.2991 38.3563 36.2169 34.9366 36.2169 34.9366L37.7358 34.3494Z" fill="#525252"/>
<path d="M41.6012 33.7742L54.4209 30.2234L55.8877 29.8635L55.9505 37.358L55.5718 38.0207L45.0164 40.9383L44.2505 40.451L41.6012 33.7742Z" fill="#818080"/>
<g style="mix-blend-mode:multiply" opacity="0.4">
<path d="M42.4327 35.8702L41.6012 33.7742L54.4209 30.2234L55.8877 29.8635L55.9065 32.146L42.4327 35.8702Z" fill="#818080"/>
</g>
<path d="M53.9117 32.0706C54.0512 32.5753 54.5759 32.8678 55.0788 32.7288C55.5816 32.5898 55.8793 32.0715 55.7394 31.5654C55.5995 31.0593 55.08 30.7698 54.5758 30.9091C54.0716 31.0485 53.7729 31.5686 53.9117 32.0706Z" fill="black"/>
<path d="M52.0111 32.5752C52.1506 33.08 52.674 33.3728 53.1795 33.2331C53.6851 33.0934 53.9811 32.574 53.8416 32.0693C53.702 31.5646 53.1798 31.2758 52.677 31.4148C52.1741 31.5538 51.8723 32.0733 52.0111 32.5752Z" fill="black"/>
<path d="M52.1656 32.5253C52.2813 32.944 52.7181 33.1904 53.1387 33.0741C53.5594 32.9579 53.8035 32.5233 53.6878 32.1045C53.572 31.6857 53.1374 31.4417 52.7195 31.5572C52.3016 31.6728 52.0506 32.1092 52.1656 32.5253Z" fill="#FEEC22"/>
<path d="M54.0644 32.0165C54.1805 32.4366 54.6166 32.6803 55.0331 32.5651C55.4496 32.45 55.7031 32.0173 55.5866 31.5958C55.4701 31.1743 55.0344 30.932 54.6138 31.0483C54.1932 31.1645 53.9486 31.5977 54.0644 32.0165Z" fill="#E94849"/>
<path d="M55.6 33.2718L55.7474 37.2571L55.4435 37.9505L45.317 40.7495L44.3938 40.3763L42.0066 34.3274L44.5757 39.9193L45.6801 40.4627L55.0627 37.8693L55.5009 37.1711L55.6 33.2718Z" fill="#4B4B4B"/>
<path d="M52.8074 31.6827C52.8074 31.6827 53.5267 31.5691 53.6446 32.3691C53.6446 32.3691 53.5106 31.7615 52.8074 31.6827Z" fill="white"/>
<path d="M13.4518 48.9905C13.4941 49.1433 13.6548 49.2339 13.8069 49.1919C13.959 49.1499 14.0462 48.9907 14.004 48.8379L12.0554 41.7883C12.0132 41.6355 11.8566 41.5437 11.7045 41.5857C11.5524 41.6278 11.461 41.7881 11.5033 41.9409L13.4518 48.9905Z" fill="url(#paint1_linear_38_1020)"/>
<path opacity="0.5" d="M13.4336 48.9017C13.4646 49.0135 13.5491 49.09 13.6231 49.0696C13.6957 49.0495 13.7304 48.9401 13.6995 48.8282L11.7501 41.7759C11.7192 41.664 11.6341 41.5906 11.5614 41.6107C11.4874 41.6312 11.453 41.7361 11.4843 41.8493L13.4336 48.9017Z" fill="white"/>
<path d="M16.2353 48.8011C15.0385 44.4714 17.5218 40.01 21.7815 38.8326C26.0412 37.6552 30.4606 40.2087 31.6573 44.5383C31.7003 44.6938 31.7389 44.8549 31.7729 45.01L16.3755 49.2659C16.3265 49.115 16.2786 48.9579 16.2353 48.8011Z" fill="#F39E18"/>
<path d="M17.2528 48.5846C16.2122 44.8197 18.372 40.9381 22.081 39.913C25.7899 38.8878 29.6329 41.1116 30.6731 44.8752C30.7116 45.0143 30.7435 45.1509 30.7722 45.2868L17.3765 48.9894C17.3331 48.859 17.2913 48.7238 17.2528 48.5846Z" fill="black"/>
<path d="M52.7838 13.3147C52.6269 12.7472 52.6597 12.236 54.0681 11.8467C55.4766 11.4574 60.1643 10.1367 61.7431 9.8677C63.0574 9.64979 64.9664 9.2998 67.326 10.831C66.6363 10.6031 65.2676 10.7524 62.1383 11.6174L55.3959 13.481C55.2397 13.5242 55.0965 13.5608 54.9739 13.5976L53.0119 14.1399L52.7838 13.3147Z" fill="url(#paint2_linear_38_1020)"/>
<path d="M53.2171 14.882L53.0116 14.1386L54.9736 13.5963C54.2096 13.8148 54.1137 13.9265 54.3535 14.794L58.8753 31.1536C58.5919 31.2114 58.3478 31.2407 58.1638 31.2313C58.1235 31.2028 58.0816 31.1792 58.0353 31.1611C57.6465 31.0028 57.6643 30.9715 57.5233 30.4613L53.2171 14.882Z" fill="url(#paint3_linear_38_1020)"/>
<path d="M55.3947 13.48L62.137 11.6164C65.2664 10.7514 66.635 10.6022 67.3248 10.83C67.4036 10.8801 67.4838 10.9358 67.5637 10.99C67.9577 11.2629 68.3598 11.5864 68.7767 11.9689C71.8118 14.7861 76.5063 19.5247 77.3423 20.3405C77.805 20.7926 78.2271 21.3485 78.6121 22.1171C78.9243 22.74 79.2084 23.4955 79.4738 24.4558L81.7278 32.6104L72.1 35.2716C72.1 35.2716 71.5635 32.5038 69.8437 31.1158C69.7907 31.0733 69.738 31.032 69.6864 30.9949C67.7758 29.0606 64.9613 29.288 63.6268 29.6568C62.3882 29.9992 60.204 30.8848 58.8779 31.1559L54.3556 14.795C54.077 13.787 54.2524 13.7972 55.3978 13.4806L55.3947 13.48Z" fill="#FAC109"/>
<path d="M52.7838 13.3147C52.6269 12.7472 52.6597 12.236 54.0681 11.8467C55.4766 11.4574 60.1643 10.1367 61.7431 9.8677C63.0574 9.64979 64.9664 9.2998 67.326 10.831C66.6363 10.6031 65.2676 10.7524 62.1383 11.6174L55.3959 13.481C55.2397 13.5242 55.0965 13.5608 54.9739 13.5976L53.0119 14.1399L52.7838 13.3147Z" fill="#FAC109"/>
<path d="M53.2171 14.882L53.0116 14.1386L54.9736 13.5963C54.2096 13.8148 54.1137 13.9265 54.3535 14.794L58.8753 31.1536C58.5919 31.2114 58.3478 31.2407 58.1638 31.2313C58.1235 31.2028 58.0816 31.1792 58.0353 31.1611C57.6465 31.0028 57.6643 30.9715 57.5233 30.4613L53.2171 14.882Z" fill="#D48417"/>
<path d="M67.1861 12.4481C67.1861 12.4481 74.4769 19.6274 75.2986 20.3165C76.1181 21.0033 76.4898 21.6171 76.6576 22.2241C76.8254 22.8311 77.0208 23.3248 75.822 23.6562L71.1033 24.9604C70.5977 25.1002 69.9928 25.2967 69.4044 24.6298C68.8204 23.9631 66.8753 22.219 66.484 21.8382C66.0928 21.4632 65.8586 21.2402 64.5008 21.6155L58.7696 23.1996C57.6762 23.5018 57.1585 23.3895 56.9239 22.541L55.0828 15.8801C54.8412 15.0058 54.4825 14.3326 56.4308 13.794C58.3791 13.2555 64.1766 11.9379 64.9641 11.7775C65.7506 11.6189 66.6648 11.9065 67.1861 12.4481Z" fill="#008CC4"/>
<g style="mix-blend-mode:screen">
<path d="M73.2198 21.8383C70.1713 20.7868 67.1294 19.7217 64.0867 18.6539C61.0983 17.6064 58.1209 16.5294 55.1671 15.3886C55.086 15.3566 55.0057 15.3275 54.9246 15.2955C54.8001 14.6957 54.9402 14.2047 56.4309 13.7927C58.3765 13.2549 64.1767 11.9365 64.9641 11.7761C65.7506 11.6175 66.6648 11.9051 67.1862 12.4467C67.1862 12.4467 74.4769 19.6261 75.2986 20.3152C76.1182 21.0019 76.4899 21.6157 76.6577 22.2227C76.7444 22.5365 76.8365 22.8164 76.7451 23.0619C75.564 22.6733 74.3933 22.2422 73.2195 21.8369L73.2198 21.8383Z" fill="#008CC4"/>
</g>
<path d="M56.4308 13.7927C58.3764 13.2549 64.1766 11.9365 64.9641 11.7761C65.7506 11.6175 66.6648 11.9051 67.1861 12.4467C67.1861 12.4467 74.4769 19.6261 75.2986 20.3152C76.1181 21.0019 76.4898 21.6157 76.6576 22.2227C76.8254 22.8298 77.0208 23.3234 75.822 23.6548L71.0046 24.9863C70.5196 25.1204 69.9552 25.25 69.4044 24.6284C68.8204 23.9617 66.8753 22.2176 66.484 21.8368C66.0928 21.4619 65.8586 21.2388 64.5008 21.6141L58.7696 23.1983C57.6762 23.5005 57.1585 23.3881 56.9239 22.5396L55.0828 15.8788C54.8412 15.0044 54.4825 14.3312 56.4308 13.7927ZM55.4562 15.57C55.4739 15.6341 55.494 15.6961 55.5117 15.7602L57.3528 22.4211C57.4618 22.8153 57.5976 22.8585 57.6657 22.8808C57.8478 22.9421 58.1741 22.9062 58.6537 22.7736L64.3849 21.1895C65.8331 20.7892 66.2472 20.9963 66.792 21.5212C66.8943 21.6191 67.1061 21.8146 67.3771 22.0642C68.1417 22.7706 69.2962 23.8317 69.7385 24.3378C70.0974 24.7452 70.412 24.6935 70.8874 24.5621L75.7047 23.2305C76.1966 23.0946 76.3027 22.961 76.3257 22.9268C76.373 22.8417 76.3121 22.6266 76.2544 22.4179L76.2329 22.3401C76.0666 21.7386 75.6909 21.2169 75.0146 20.6536C74.1907 19.9621 67.174 13.0536 66.876 12.76C66.8725 12.758 66.87 12.7543 66.8669 12.7537C66.4393 12.311 65.6771 12.0827 65.0526 12.2083C64.2311 12.3737 58.4484 13.6916 56.5481 14.2169C55.726 14.4441 55.4564 14.664 55.3734 14.8118C55.2895 14.9671 55.3464 15.1995 55.4562 15.57Z" fill="black"/>
<path d="M67.3305 10.8332C67.4075 10.8823 67.4864 10.9384 67.5645 10.9916C67.9585 11.2645 68.3606 11.588 68.7775 11.9705C69.8513 12.9688 71.1331 14.2076 72.38 15.4266C74.654 17.651 76.8021 19.8148 77.3431 20.3421C77.8025 20.7878 78.2194 21.3406 78.6 22.0988C78.4695 22.3096 78.2018 22.3763 77.6604 21.8049C77.0078 21.119 73.8925 18.0172 71.3506 15.5012C69.625 13.7934 68.167 12.3551 67.9297 12.1314C67.493 11.7147 67.034 11.0517 67.3295 10.8349L67.3305 10.8332Z" fill="url(#paint4_linear_38_1020)"/>
<path style="mix-blend-mode:multiply" d="M67.3287 10.8335C67.4071 10.8823 67.4846 10.9387 67.5641 10.9916C67.6287 11.0384 67.6985 11.0881 67.7641 11.139C67.8535 11.4035 68.1164 11.7464 68.3746 11.9922C68.5919 12.2023 69.9372 13.5425 71.5281 15.1364C73.8698 17.483 76.7433 20.3771 77.3453 21.0183C77.7923 21.4938 78.033 21.4948 78.1664 21.3478C78.3166 21.5765 78.461 21.8214 78.6013 22.0998C78.4695 22.311 78.2039 22.38 77.6625 21.8087C77.0099 21.1228 73.8921 18.0172 71.3502 15.5012C69.6246 13.7934 68.1653 12.3555 67.9307 12.131C67.4926 11.7147 67.0336 11.0517 67.3291 10.8349L67.3287 10.8335Z" fill="url(#paint5_linear_38_1020)"/>
<path d="M60.1223 23.5364L58.4823 23.9897C58.211 24.0647 58.1318 24.1571 58.1771 24.3208C58.2223 24.4845 58.3916 25.0969 59.6747 24.7291C60.9401 24.3661 60.757 23.3624 60.1227 23.5378L60.1223 23.5364Z" fill="#D48417"/>
<g style="mix-blend-mode:multiply">
<path d="M58.5227 24.7553C58.6842 24.5873 58.9539 24.3894 59.3814 24.2712C59.9062 24.1262 60.2319 24.2373 60.3958 24.3344C60.2485 24.4897 60.0105 24.6318 59.6756 24.7273C59.0903 24.8935 58.7354 24.858 58.5227 24.7553Z" fill="#D48417"/>
</g>
<path d="M63.0288 28.9074C64.4948 28.5021 67.5863 28.2526 69.6838 30.3774C67.8214 28.9482 65.5237 28.3881 62.2079 29.5072C58.7886 30.6623 58.3251 34.5346 58.5687 35.5758L57.5695 31.961C57.418 31.4126 57.3381 30.8782 57.0301 30.6389C58.1934 30.702 61.3805 29.3629 63.0288 28.9074Z" fill="black"/>
<path d="M63.2332 28.5089C67.0887 27.4432 71.0638 29.5365 72.3992 33.2155L57.7869 37.2545C57.0406 33.4126 59.379 29.5742 63.2346 28.5085L63.2332 28.5089Z" fill="black"/>
<path d="M58.8363 37.0599C59.7228 40.2668 63.0522 42.1481 66.2761 41.257C69.5 40.3659 71.3907 37.0417 70.5043 33.8348C69.6178 30.6278 66.2884 28.7465 63.0645 29.6376C59.8406 30.5287 57.9499 33.8529 58.8363 37.0599Z" fill="#1D1D1B"/>
<g style="mix-blend-mode:screen">
<path style="mix-blend-mode:screen" opacity="0.5" d="M63.2103 30.3139C60.3098 31.1157 58.5256 33.9449 58.966 36.8347C58.1726 33.7561 60.0002 30.5933 63.0912 29.739C66.1822 28.8846 69.4435 30.6951 70.3035 33.8066C70.3646 34.0276 70.412 34.2524 70.4463 34.4778C70.4372 34.4451 70.4305 34.4102 70.4222 34.3802C69.5622 31.2687 66.3324 29.4495 63.2099 30.3126L63.2103 30.3139Z" fill="url(#paint6_radial_38_1020)"/>
</g>
<g style="mix-blend-mode:multiply">
<g style="mix-blend-mode:screen" opacity="0.5">
<path d="M66.0447 40.5692C63.1441 41.3709 60.1606 39.8609 59.0544 37.1552C59.955 40.2056 63.1468 41.978 66.2377 41.1237C69.3287 40.2693 71.1972 37.0409 70.3372 33.9294C70.2761 33.7084 70.2013 33.4912 70.1146 33.2788C70.1236 33.3115 70.1358 33.3449 70.1441 33.3749C71.0041 36.4864 69.1668 39.7047 66.0443 40.5678L66.0447 40.5692Z" fill="#1D1D1B"/>
</g>
</g>
<g style="mix-blend-mode:multiply">
<path d="M63.4615 31.0727C65.8921 30.4008 68.4049 31.8192 69.0741 34.2404C69.7434 36.6617 68.314 39.1682 65.8847 39.8397C63.4555 40.5111 60.9386 39.0939 60.2697 36.674C59.6009 34.2541 61.0323 31.7441 63.4615 31.0727Z" fill="#2E2D2C"/>
</g>
<g style="mix-blend-mode:screen" opacity="0.5">
<path d="M60.985 36.4526C61.5517 38.5028 63.6836 39.7064 65.7415 39.1376C67.7994 38.5687 69.012 36.4408 68.4453 34.3905C67.8786 32.3403 65.7515 31.1384 63.6881 31.7087C61.6247 32.2791 60.4179 34.401 60.985 36.4526Z" fill="white"/>
</g>
<path d="M61.4608 36.3212C61.9566 38.115 63.8121 39.1615 65.6111 38.6642C67.4101 38.167 68.4688 36.315 67.973 34.5212C67.4772 32.7274 65.6207 31.6827 63.819 32.1807C62.0173 32.6787 60.9658 34.5302 61.4608 36.3212Z" fill="#2C2D2B"/>
<path d="M61.7033 36.2542C62.1614 37.9116 63.8838 38.8818 65.5457 38.4224C67.2077 37.963 68.1886 36.2456 67.7305 34.5882C67.2724 32.9309 65.5518 31.9616 63.8871 32.4218C62.2224 32.8819 61.2456 34.5982 61.7033 36.2542Z" fill="#686867"/>
<path d="M63.6362 35.7037C63.7923 36.2684 64.3759 36.5975 64.9445 36.4404C65.5131 36.2832 65.8434 35.7015 65.6873 35.1368C65.5312 34.572 64.9435 34.244 64.3804 34.3997C63.8173 34.5553 63.4801 35.1389 63.6362 35.7037Z" fill="#2D2E2D"/>
<g style="mix-blend-mode:multiply">
<path d="M64.0832 35.5802C64.1707 35.8967 64.5023 36.0826 64.8201 35.9947C65.138 35.9068 65.3243 35.5778 65.2369 35.2614C65.1494 34.9449 64.8205 34.7583 64.5027 34.8461C64.1848 34.934 63.9957 35.2638 64.0832 35.5802Z" fill="#2D2E2D"/>
</g>
<g style="mix-blend-mode:multiply" opacity="0.8">
<path d="M68.2933 34.142C68.3092 34.189 68.3213 34.2327 68.3338 34.2777C68.8895 36.2884 67.7042 38.3706 65.6832 38.9292C63.6623 39.4878 61.5813 38.3084 61.0255 36.2977C61.012 36.2486 61.004 36.2038 60.9908 36.1561C64.3207 36.262 66.7578 35.1655 68.2933 34.142Z" fill="#BBBABA"/>
</g>
<path d="M62.758 28.348C66.882 27.2081 71.5818 29.6503 72.7167 33.7562C72.8494 34.2364 72.9297 34.7134 72.9683 35.1946L71.9462 35.4771C71.9024 35.1001 71.8327 34.7303 71.7293 34.3565C70.6827 30.5698 66.8874 28.3107 63.2525 29.3155C59.8354 30.26 57.7772 33.7464 58.4079 37.3031L57.694 37.5004C56.8085 33.5179 58.7645 29.4533 62.7597 28.349L62.758 28.348Z" fill="#F39E18"/>
<path d="M81.3704 29.5831L82.1878 32.5405C82.3443 33.1066 82.5689 33.7111 81.1823 34.0944L74.5208 35.9356C74.1824 36.0292 73.7305 36.1923 73.5495 35.5375L73.2271 34.3712C73.1438 34.0697 72.9937 33.7295 73.7911 33.5091L77.3986 32.5119C78.27 32.2711 79.3976 31.5644 79.1559 30.69C78.9142 29.8157 78.7845 29.4477 79.2654 29.3148L80.4506 28.9872C80.8767 28.8694 81.1871 28.9202 81.3704 29.5831Z" fill="#F39E18"/>
<path d="M73.7908 33.5077L73.9634 33.46C74.2169 34.4412 74.5328 34.9222 75.8727 34.5518L82.2547 32.7878C82.3749 33.2758 82.3689 33.7664 81.181 34.0947L74.5209 35.9357C74.1825 36.0292 73.7305 36.1923 73.5495 35.5375L73.2272 34.3712C73.1438 34.0698 72.9938 33.7295 73.7912 33.5091L73.7908 33.5077Z" fill="#D48417"/>
<path d="M61.0881 11.3161C56.9505 12.5243 54.3364 13.2953 53.0945 12.3186C55.0869 11.7635 59.5276 10.5258 61.1172 10.242C62.2863 10.0378 63.8774 9.73311 65.7823 10.3768C64.6085 10.484 63.0484 10.7463 61.0867 11.3164L61.0881 11.3161Z" fill="#FFED00"/>
<path d="M63.5358 23.5722C63.5302 23.5841 63.527 23.5938 63.5228 23.6052C63.4653 23.7547 63.4113 23.9062 63.3618 24.0579C63.3453 24.105 63.332 24.1528 63.3204 24.2015C63.4225 24.2188 63.5242 24.2347 63.627 24.2489C63.627 24.2489 63.6297 24.2481 63.6307 24.2464C63.6463 24.2494 63.6619 24.2525 63.6778 24.2568C63.6033 24.3288 63.5139 24.3947 63.4319 24.4555C63.2944 24.5611 63.1527 24.6619 63.0181 24.7725C62.8929 24.8746 62.762 24.9666 62.6276 25.0566C62.6198 25.0603 62.6123 25.0653 62.6031 25.0693C62.5948 25.0554 62.5866 25.0415 62.5756 25.0284C62.519 24.9413 62.4611 24.8545 62.4036 24.7691C62.3361 24.6688 62.2675 24.5703 62.1986 24.4704C62.1816 24.4355 62.1589 24.4065 62.1344 24.3766C62.093 24.3176 62.0533 24.2595 62.0137 24.2014C61.9837 24.1569 61.9527 24.1141 61.9217 24.0712C61.9213 24.0699 61.9185 24.0706 61.9182 24.0693C61.9089 24.0571 61.8997 24.045 61.8922 24.0339C61.8922 24.0339 61.8918 24.0325 61.8928 24.0308C61.9284 24.0371 61.9633 24.0406 61.9975 24.0415C62.0809 24.0551 62.1683 24.0618 62.2529 24.0692C62.2967 23.95 62.3404 23.8307 62.3837 23.7101C62.4267 23.5881 62.4724 23.4653 62.5335 23.3501C62.5589 23.3034 62.6062 23.2609 62.6351 23.2162C62.6561 23.1855 62.7073 23.1625 62.7196 23.1591C62.9481 23.0842 63.1873 23.0372 63.4208 22.98C63.6127 22.9328 63.7969 22.8628 63.9961 22.8312C64.0384 22.8137 64.1269 22.7922 64.1809 22.8007C64.2103 22.8058 64.2389 22.8185 64.2647 22.8319C64.2651 22.8333 64.2672 22.8356 64.2686 22.8352C64.2717 22.8358 64.2734 22.8368 64.2769 22.8388C64.4995 22.9505 64.6923 23.1145 64.8959 23.2535C64.965 23.3005 65.034 23.3475 65.1017 23.3949C65.094 23.4044 65.0866 23.4152 65.0789 23.4247C65.0789 23.4247 65.0772 23.4237 65.0754 23.4227C64.9539 23.5591 64.8465 23.715 64.7344 23.8591C64.6297 23.9923 64.5319 24.1456 64.4099 24.2645C64.3932 24.2838 64.3764 24.3031 64.3623 24.3217C64.3507 24.3117 64.3387 24.3003 64.3264 24.2876C64.2371 24.1992 64.1397 24.1189 64.048 24.0327C63.9609 23.9525 63.8749 23.8705 63.7888 23.7886C63.7081 23.7155 63.6244 23.6314 63.5309 23.5706L63.5358 23.5722ZM63.9749 22.9414C64.0123 22.9163 64.0684 22.8685 64.116 22.8701C64.146 22.872 64.135 22.8751 64.1613 22.8634C64.1654 22.8623 64.1622 22.8558 64.1594 22.8566C64.1241 22.862 64.0947 22.8466 64.0602 22.8605C64.034 22.8722 64.0081 22.8852 63.9826 22.8996C63.9172 22.9353 63.8642 22.9837 63.8197 23.0415C63.7066 23.1873 63.6167 23.3473 63.5486 23.5173C63.5454 23.527 63.5636 23.5396 63.5696 23.5291C63.6087 23.4625 63.6342 23.3894 63.6768 23.3248C63.7224 23.2549 63.7662 23.184 63.8126 23.1169C63.8593 23.0511 63.9101 22.9842 63.9787 22.9388L63.9749 22.9414Z" fill="#007641"/>
<path d="M61.7604 26.1217C61.7604 26.1217 61.7607 26.1172 61.7616 26.1155C61.7609 26.1127 61.7601 26.11 61.7594 26.1073C61.738 25.8592 61.7814 25.6108 61.7956 25.3631C61.8019 25.2791 61.8054 25.1959 61.8121 25.1133C61.8242 25.1144 61.8376 25.1151 61.8501 25.1175C61.8501 25.1175 61.8505 25.1189 61.8508 25.1202C62.0309 25.1527 62.2197 25.1636 62.4009 25.1841C62.5699 25.2034 62.751 25.2077 62.9162 25.2501C62.9411 25.255 62.9657 25.2585 62.9898 25.2606C62.9854 25.2765 62.9809 25.2924 62.9779 25.308C62.9483 25.4306 62.9282 25.5551 62.9032 25.6781C62.8794 25.7948 62.8535 25.9091 62.8293 26.0244C62.8074 26.1318 62.7774 26.2473 62.7755 26.3579C62.7868 26.3563 62.7982 26.3546 62.8109 26.3526C62.9695 26.3234 63.1269 26.2902 63.284 26.2556C63.3324 26.2437 63.3813 26.2287 63.4279 26.2158C63.3898 26.1206 63.3499 26.0244 63.3091 25.93C63.3077 25.9304 63.306 25.9294 63.3056 25.928C63.3014 25.913 63.2959 25.8984 63.2904 25.8838C63.3917 25.9086 63.4937 25.9524 63.5876 25.9881C63.7498 26.0519 63.9086 26.1196 64.072 26.1772C64.224 26.2307 64.3731 26.2952 64.518 26.3608C64.518 26.3608 64.5328 26.3714 64.5411 26.375C64.5336 26.3903 64.527 26.4039 64.5194 26.4192C64.473 26.5128 64.4294 26.6056 64.3847 26.7002C64.3339 26.8096 64.2844 26.9188 64.2353 27.0292C64.2133 27.0618 64.2007 27.0961 64.1884 27.1318C64.1593 27.1971 64.1284 27.2614 64.0989 27.3254C64.0769 27.374 64.0563 27.4223 64.0344 27.4709C64.0344 27.4709 64.0351 27.4737 64.0355 27.475C64.0303 27.4882 64.0251 27.5014 64.0185 27.515L64.0144 27.5161C64.0022 27.4828 63.9873 27.4502 63.9704 27.4211C63.94 27.3429 63.8995 27.2659 63.8622 27.1896C63.7377 27.2138 63.6121 27.2397 63.4879 27.2652C63.3606 27.2901 63.2309 27.3171 63.1014 27.3236C63.0491 27.3263 62.9866 27.3083 62.9331 27.3069C62.8958 27.3055 62.8499 27.2727 62.8404 27.265C62.6598 27.1079 62.4953 26.9287 62.3247 26.76C62.1846 26.6211 62.0304 26.5008 61.8999 26.3489C61.8613 26.3214 61.7981 26.2581 61.7779 26.2064C61.7659 26.1789 61.7621 26.1491 61.7628 26.1195L61.7604 26.1217ZM61.8577 26.2548C61.9796 26.3489 62.0859 26.4296 62.2449 26.4444C62.3966 26.4597 62.544 26.4381 62.6873 26.3911C62.7038 26.3866 62.6905 26.3653 62.677 26.3646C62.5332 26.3779 62.3906 26.4115 62.2451 26.3973C62.0965 26.3826 61.9896 26.3211 61.864 26.2457C61.8574 26.2432 61.8517 26.2491 61.8577 26.2548Z" fill="#007641"/>
<path d="M64.5098 25.9475C64.5044 25.9226 64.498 25.8994 64.4912 25.8749C64.5062 25.8707 64.5217 25.8679 64.5389 25.8661C64.6638 25.8433 64.7862 25.8109 64.9086 25.7844C65.026 25.7608 65.1406 25.7379 65.2576 25.7129C65.3659 25.6889 65.4827 25.6683 65.5861 25.6265C65.579 25.6167 65.5733 25.6066 65.5675 25.5964C65.4778 25.4641 65.3854 25.3325 65.2897 25.2048C65.2594 25.1648 65.2282 25.1264 65.1959 25.0898C65.1232 25.1628 65.0508 25.2371 64.9802 25.3124C64.9802 25.3124 64.9806 25.3138 64.9813 25.3165C64.9695 25.3271 64.9581 25.3391 64.9459 25.3483C64.9293 25.2457 64.9284 25.1358 64.924 25.0343C64.9175 24.8614 64.9168 24.6883 64.9044 24.5155C64.8931 24.3571 64.8927 24.1957 64.8969 24.0345C64.8991 24.0266 64.9009 24.0172 64.9014 24.0083C64.9176 24.0082 64.9342 24.0095 64.9504 24.0094C65.0546 24.0129 65.1588 24.0164 65.264 24.0182C65.384 24.0203 65.505 24.0206 65.6264 24.0223C65.6648 24.0278 65.7031 24.0275 65.7402 24.0231C65.8113 24.024 65.8823 24.025 65.9547 24.0255C66.0078 24.0255 66.0613 24.0269 66.113 24.0273C66.1144 24.0269 66.1158 24.0265 66.1171 24.0261C66.132 24.0264 66.1464 24.0254 66.1613 24.0257L66.162 24.0284C66.1364 24.0531 66.1125 24.0788 66.0925 24.1078C66.0326 24.1684 65.9773 24.2351 65.9216 24.3004C65.9934 24.4054 66.0679 24.5096 66.1407 24.6128C66.2156 24.7184 66.2912 24.8267 66.3485 24.943C66.3716 24.9895 66.3786 25.0521 66.3981 25.1011C66.4123 25.1368 66.4009 25.1914 66.3967 25.2028C66.3259 25.4323 66.2267 25.655 66.1392 25.8774C66.0664 26.062 66.0167 26.2505 65.9296 26.4317C65.9186 26.4773 65.8858 26.5612 65.8464 26.6C65.8259 26.6219 65.8003 26.6362 65.7731 26.6497L65.7662 26.6516C65.7662 26.6516 65.7629 26.6554 65.7601 26.6562C65.5405 26.7741 65.2938 26.8365 65.0607 26.9215C64.9817 26.9506 64.9045 26.9808 64.8248 27.0072C64.8214 26.9949 64.817 26.9844 64.8133 26.9708L64.816 26.97C64.7756 26.7918 64.7104 26.6145 64.6562 26.44C64.6073 26.2789 64.5375 26.1117 64.5104 25.9444L64.5098 25.9475ZM65.6242 25.6043C65.7886 25.5853 65.9736 25.5077 66.1132 25.4206C66.2254 25.3515 66.3826 25.264 66.3763 25.113C66.3755 25.1103 66.3707 25.1087 66.37 25.1118C66.3444 25.2539 66.1766 25.3458 66.0571 25.4097C65.9141 25.4845 65.7623 25.5221 65.6122 25.5767C65.5958 25.5813 65.6084 25.6057 65.6229 25.6046L65.6242 25.6043Z" fill="#007641"/>
<path d="M79.1528 27.6427L78.6642 25.8748C78.4727 25.1819 78.8422 24.4645 79.499 24.2052L80.7271 28.648C80.0299 28.7614 79.3448 28.337 79.1528 27.6427Z" fill="black"/>
<path d="M79.288 27.4716L78.868 25.952C78.7032 25.3559 79.0214 24.7409 79.585 24.5175L80.6407 28.337C80.041 28.4352 79.4532 28.0691 79.2884 27.473L79.288 27.4716Z" fill="#EE7125"/>
<path d="M80.3359 27.2348L80.6402 28.3356C80.0574 28.4306 79.4863 28.0878 79.3029 27.5203L80.3359 27.2348Z" fill="#E63324"/>
<path d="M79.5498 24.8591L80.4687 28.1834C80.4687 28.1834 79.8006 26.9189 79.5498 24.8591Z" fill="white"/>
<path d="M17.9252 48.3677C18.8116 51.5747 22.1425 53.4556 25.3636 52.5652C28.5848 51.6749 30.4796 48.3496 29.5931 45.1427C28.7067 41.9357 25.3759 40.0548 22.152 40.9459C18.9281 41.837 17.0388 45.1608 17.9252 48.3677Z" fill="#1D1D1B"/>
<g style="mix-blend-mode:screen">
<path style="mix-blend-mode:screen" opacity="0.5" d="M22.2992 41.6218C19.3986 42.4235 17.6131 45.2532 18.0549 48.1426C17.2629 45.0637 19.0905 41.9009 22.1801 41.0469C25.2697 40.1929 28.5323 42.003 29.3924 45.1145C29.4535 45.3355 29.5022 45.5599 29.5351 45.7857C29.5261 45.753 29.5208 45.7177 29.5125 45.6877C28.6524 42.5762 25.4213 40.7574 22.3002 41.6201L22.2992 41.6218Z" fill="url(#paint7_radial_38_1020)"/>
</g>
<g style="mix-blend-mode:multiply">
<g style="mix-blend-mode:screen" opacity="0.5">
<path d="M25.1335 51.8771C22.233 52.6788 19.2481 51.1692 18.1432 48.4631C19.0452 51.5131 22.237 53.2856 25.3266 52.4316C28.4162 51.5776 30.2861 48.3488 29.426 45.2373C29.3649 45.0163 29.2915 44.7987 29.2034 44.5867C29.2125 44.6194 29.226 44.6524 29.2343 44.6824C30.0943 47.7939 28.2556 51.0126 25.1345 51.8753L25.1335 51.8771Z" fill="#1D1D1B"/>
</g>
</g>
<g style="mix-blend-mode:multiply">
<path d="M22.549 42.3809C24.9796 41.7091 27.4937 43.1271 28.163 45.5483C28.8322 47.9696 27.4028 50.4761 24.9722 51.148C22.5416 51.8198 20.0261 50.4022 19.3572 47.9823C18.6884 45.5624 20.1198 43.0524 22.549 42.3809Z" fill="#2E2D2C"/>
</g>
<g style="mix-blend-mode:screen" opacity="0.5">
<path d="M20.0738 47.7605C20.6405 49.8107 22.7711 51.0146 24.829 50.4458C26.8869 49.877 28.1008 47.7487 27.5341 45.6984C26.9674 43.6482 24.839 42.4467 22.7756 43.017C20.7122 43.5873 19.5067 45.7089 20.0738 47.7605Z" fill="white"/>
</g>
<path d="M20.5501 47.6291C21.0459 49.4229 22.9028 50.469 24.7004 49.9721C26.4979 49.4752 27.5567 47.6233 27.0609 45.8295C26.5651 44.0357 24.7086 42.991 22.9083 43.4886C21.1079 43.9862 20.055 45.8381 20.5501 47.6291Z" fill="#2C2D2B"/>
<path d="M20.7926 47.5621C21.2507 49.2194 22.9717 50.19 24.6336 49.7307C26.2956 49.2713 27.2765 47.5539 26.8184 45.8965C26.3603 44.2391 24.6397 43.2699 22.975 43.73C21.3103 44.1902 20.3349 45.9061 20.7926 47.5621Z" fill="#686867"/>
<path d="M22.7222 47.0123C22.8783 47.5771 23.4632 47.9058 24.0304 47.749C24.5976 47.5922 24.9293 47.0101 24.7732 46.4454C24.6171 45.8807 24.0308 45.5523 23.4664 45.7083C22.9019 45.8644 22.5661 46.4476 22.7222 47.0123Z" fill="#2D2E2D"/>
<g style="mix-blend-mode:multiply">
<path d="M23.1721 46.8881C23.2596 47.2046 23.5898 47.3908 23.909 47.3026C24.2283 47.2143 24.4132 46.8857 24.3257 46.5692C24.2383 46.2528 23.9094 46.0662 23.5915 46.154C23.2737 46.2419 23.0846 46.5717 23.1721 46.8881Z" fill="#2D2E2D"/>
</g>
<g style="mix-blend-mode:multiply" opacity="0.8">
<path d="M27.3808 45.4503C27.3981 45.4969 27.4102 45.5406 27.4226 45.5856C27.9784 47.5963 26.7917 49.6789 24.7735 50.2368C22.7553 50.7946 20.6702 49.6163 20.1144 47.6056C20.1008 47.5565 20.0929 47.5117 20.0797 47.464C23.4082 47.5703 25.8453 46.4738 27.3808 45.4503Z" fill="#BBBABA"/>
</g>
<g style="mix-blend-mode:screen">
<path d="M80.2559 29.1966C80.2559 29.1966 79.3681 29.442 79.4446 29.9641C79.52 30.488 80.0484 31.5298 79.6199 31.9537C79.1914 32.3775 74.4142 33.7317 74.4142 33.7317L79.0982 32.0406C79.0982 32.0406 79.7485 31.8374 79.609 31.3327L79.2832 30.1541C79.2832 30.1541 79.1246 29.7457 79.3636 29.5431C79.6039 29.3401 80.2569 29.1948 80.2569 29.1948L80.2559 29.1966Z" fill="#65B339"/>
</g>
<path d="M3.94514 28.2092L2.50789 28.6065L7.54405 46.8267L9.69925 46.231L9.5013 45.5148L7.93799 45.9469L3.35579 29.3691L4.36968 29.0889L3.94514 28.2092Z" fill="#003719"/>
<path d="M6.5061 20.5267L5.39732 19.9727L2.81725 25.1245L4.10373 25.9906L4.48286 25.388L3.44091 24.9052L5.48656 20.6264L6.36135 21.1555L6.5061 20.5267Z" fill="#003719"/>
<path d="M12.4367 42.1456L55.6722 30.1951L49.6357 8.35596L16.9241 17.3976L12.4367 42.1456Z" fill="#007641"/>
<path d="M55.5986 29.9304L55.6718 30.1951L12.4363 42.1456L12.4906 41.8457L55.5986 29.9304Z" fill="#004121"/>
<path d="M13.7805 40.8681L54.4251 29.6337L48.8535 9.47649L18.1012 17.9766L13.7805 40.8681Z" fill="#2EA04A"/>
<g style="mix-blend-mode:multiply">
<path d="M27.6072 15.3491L29.4404 14.8424L35.0116 34.9982L33.1784 35.5049L27.6072 15.3491Z" fill="#2EA04A"/>
</g>
<g style="mix-blend-mode:multiply">
<path d="M16.7349 25.2201L17.5723 20.7849L22.4603 38.4689L20.5435 38.9988L16.7349 25.2201Z" fill="#2EA04A"/>
</g>
<g style="mix-blend-mode:multiply">
<path d="M40.3294 11.8328L42.1201 11.3378L47.6913 31.4936L45.9006 31.9886L40.3294 11.8328Z" fill="#2EA04A"/>
</g>
<g style="mix-blend-mode:multiply">
<path d="M48.3603 9.61282L48.8535 9.47649L54.4247 29.6323L53.9315 29.7686L48.3603 9.61282Z" fill="#2EA04A"/>
</g>
<path d="M40.3533 11.1477L41.6221 10.797L47.4606 31.92L46.1919 32.2706L40.3533 11.1477Z" fill="#007641"/>
<path d="M27.674 14.6523L28.9414 14.302L34.7799 35.4249L33.5126 35.7752L27.674 14.6523Z" fill="#007641"/>
<path d="M14.9953 18.1568L16.2627 17.8065L22.1012 38.9295L20.8338 39.2798L14.9953 18.1568Z" fill="#007641"/>
<path d="M12.1737 48.1047L9.38278 48.8761L3.10237 26.1544L6.39531 19.628L17.8057 16.4741L12.1737 48.1047Z" fill="#007641"/>
<path d="M11.6819 45.1159L9.25819 45.7859L3.8005 26.0406L6.66068 20.3709L17.001 17.5128L11.6819 45.1159Z" fill="#2EA04A"/>
<path d="M16.2429 24.3123L5.13925 22.8987L4.85043 23.5879L15.9732 25.0652L16.2429 24.3123Z" fill="#007641"/>
<path d="M14.9552 31.5737L5.67198 34.0515L5.58696 34.6403L14.8984 32.2002L14.9552 31.5737Z" fill="#007641"/>
<path d="M17.6562 17.3317L11.3884 47.7344L11.6766 47.7898L17.6562 17.3317Z" fill="#003719"/>
<path d="M12.7344 18.2841L8.77211 33.5778L8.02941 33.8521L12.0077 18.6215L12.7344 18.2841Z" fill="#007641"/>
<path d="M8.97469 32.4368C9.00335 32.5405 9.11167 32.6016 9.21443 32.5732C9.31719 32.5448 9.37876 32.4367 9.35011 32.333C9.32145 32.2294 9.21525 32.1706 9.11112 32.1994C9.00699 32.2282 8.94642 32.3345 8.97469 32.4368Z" fill="#03693A"/>
<path d="M16.2057 22.3343C16.2057 22.3343 14.6351 22.1958 14.315 22.9582C13.8615 24.0336 15.8805 24.4284 15.8805 24.4284L16.2057 22.3343Z" fill="#004422"/>
<path d="M15.4222 23.8165L14.7336 24.8144L14.4091 24.5635L15.1087 23.6051L15.4222 23.8165Z" fill="#B2B2B2"/>
<path d="M14.8264 23.4469C14.9158 23.7701 15.2513 23.9593 15.5746 23.87C15.898 23.7806 16.0886 23.446 15.9993 23.1227C15.9099 22.7994 15.5762 22.6112 15.2515 22.7009C14.9268 22.7907 14.7371 23.1236 14.8264 23.4469Z" fill="#03693A"/>
<path d="M8.65748 32.0456L9.62173 32.7276L15.1983 24.9121L14.2358 24.2311L8.65748 32.0456Z" fill="#006135"/>
<path d="M14.2369 24.2294L14.5205 24.43L8.94348 32.2451L8.65987 32.0445L14.2369 24.2294Z" fill="#004926"/>
<path d="M9.29629 32.4814L9.42637 32.5732L15.0029 24.7577L14.8724 24.6646L9.29629 32.4814Z" fill="#2EA04A"/>
<path d="M10.4142 33.0798C10.4142 33.0798 9.777 31.5482 8.95058 31.621C7.7846 31.7245 8.3703 33.6888 8.3703 33.6888L10.4142 33.0798Z" fill="#007641"/>
<path d="M8.66772 32.6023C8.73332 32.8397 8.9793 32.9773 9.21633 32.9117C9.45336 32.8462 9.59513 32.6015 9.52952 32.3641C9.46392 32.1268 9.21795 31.9892 8.97955 32.0551C8.74115 32.121 8.60249 32.3664 8.66772 32.6023Z" fill="#002D13"/>
<path d="M49.0142 9.07085C49.0482 9.19362 49.174 9.26457 49.2973 9.23048C49.4206 9.1964 49.4917 9.06955 49.4582 8.94815C49.4246 8.82675 49.2988 8.7558 49.1755 8.78988C49.0522 8.82397 48.9807 8.94945 49.0142 9.07085Z" fill="#004F2A"/>
<path d="M54.7017 29.6468C54.7353 29.7682 54.8615 29.8405 54.9848 29.8064C55.1081 29.7724 55.1792 29.6455 55.1457 29.5241C55.1121 29.4027 54.9863 29.3318 54.863 29.3658C54.7397 29.3999 54.6678 29.524 54.7017 29.6468Z" fill="#004F2A"/>
<path d="M40.8053 11.3401C40.8392 11.4628 40.9664 11.5334 41.0883 11.4997C41.2102 11.466 41.2827 11.3388 41.2492 11.2174C41.2156 11.096 41.0885 11.0254 40.9665 11.0591C40.8446 11.0928 40.7717 11.2187 40.8053 11.3401Z" fill="#004F2A"/>
<path d="M46.4918 31.916C46.5253 32.0374 46.6529 32.1094 46.7748 32.0757C46.8968 32.042 46.9693 31.9147 46.9357 31.7933C46.9021 31.6719 46.775 31.6014 46.653 31.6351C46.5311 31.6688 46.4579 31.7933 46.4918 31.916Z" fill="#004F2A"/>
<path d="M28.0631 14.8621C28.097 14.9848 28.2228 15.0558 28.3461 15.0217C28.4694 14.9876 28.5405 14.8608 28.507 14.7394C28.4734 14.618 28.3476 14.547 28.2243 14.5811C28.101 14.6152 28.0295 14.7407 28.0631 14.8621Z" fill="#004F2A"/>
<path d="M33.7496 35.438C33.7832 35.5594 33.9093 35.6317 34.0326 35.5977C34.1559 35.5636 34.2271 35.4367 34.1935 35.3153C34.16 35.1939 34.0342 35.123 33.9109 35.1571C33.7875 35.1911 33.7157 35.3153 33.7496 35.438Z" fill="#004F2A"/>
<path d="M16.9648 17.0913C16.9988 17.214 17.1245 17.285 17.2479 17.2509C17.3712 17.2168 17.4427 17.0913 17.4087 16.9686C17.3748 16.8458 17.2476 16.7752 17.1257 16.8089C17.0038 16.8426 16.9313 16.9699 16.9648 17.0913Z" fill="#004F2A"/>
<path d="M6.65311 19.9414C6.68704 20.0642 6.81283 20.1352 6.93477 20.1014C7.05671 20.0677 7.12822 19.9423 7.09428 19.8195C7.06035 19.6967 6.93455 19.6258 6.81261 19.6595C6.69067 19.6932 6.61955 19.82 6.65311 19.9414Z" fill="#004F2A"/>
<path d="M9.45858 48.2443C9.49252 48.367 9.61831 48.438 9.74162 48.4039C9.86493 48.3698 9.93643 48.2443 9.9025 48.1216C9.86857 47.9988 9.74178 47.9296 9.61984 47.9633C9.4979 47.997 9.42503 48.1229 9.45858 48.2443Z" fill="#004F2A"/>
<path d="M3.40818 26.3533C3.44174 26.4747 3.56791 26.547 3.69122 26.513C3.81453 26.4789 3.88565 26.352 3.8521 26.2306C3.81854 26.1092 3.691 26.0373 3.56906 26.071C3.44712 26.1047 3.37462 26.2319 3.40818 26.3533Z" fill="#004F2A"/>
<path d="M21.1982 38.9074C21.2318 39.0288 21.3593 39.1007 21.4813 39.067C21.6032 39.0333 21.6743 38.9065 21.6408 38.7851C21.6072 38.6637 21.4814 38.5927 21.3595 38.6264C21.2376 38.6601 21.1643 38.7846 21.1982 38.9074Z" fill="#004F2A"/>
<path d="M42.5293 11.6124L48.1934 10.0468L53.5549 29.4442L47.8908 31.0097L42.5293 11.6124Z" fill="#65B339"/>
<path d="M30.0401 15.0643L40.1406 12.2725L45.5022 31.6698L35.4017 34.4617L30.0401 15.0643Z" fill="#65B339"/>
<path d="M27.3359 15.8119L32.6971 35.2079L22.5952 38.0001L17.9316 21.1277L18.4809 18.2595L27.3359 15.8119Z" fill="#65B339"/>
<g style="mix-blend-mode:screen" opacity="0.5">
<path d="M42.5293 11.6124L48.1934 10.0468L50.1446 17.106L44.4805 18.6715L42.5293 11.6124Z" fill="#65B339"/>
</g>
<g style="mix-blend-mode:screen" opacity="0.5">
<path d="M30.0401 15.0643L40.1406 12.2725L42.0918 19.3316L31.9913 22.1235L30.0401 15.0643Z" fill="#65B339"/>
</g>
<g style="mix-blend-mode:screen" opacity="0.5">
<path d="M19.1849 25.6619L17.9316 21.1277L18.4809 18.2595L27.3359 15.8119L29.2868 22.8697L19.1849 25.6619Z" fill="#65B339"/>
</g>
<path d="M16.8516 26.6798L20.1548 38.6306L14.3633 40.2314L16.8516 26.6798Z" fill="#65B339"/>
<path d="M13.5868 32.9724L11.5031 44.6899L9.43145 45.2625L6.53538 34.7849L13.5868 32.9724Z" fill="#65B339"/>
<path d="M10.0745 24.5899L7.9031 33.2746L6.30052 33.65L4.17777 25.9701L5.20373 23.9995L10.0745 24.5899Z" fill="#65B339"/>
<path d="M11.4845 19.4445L10.5859 23.2256L5.81186 22.745L6.85996 20.4863L11.4845 19.4445Z" fill="#65B339"/>
<path d="M12.8535 18.9648L11.6983 23.4291L14.1303 23.7069C14.1303 23.7069 13.4074 22.8202 14.5507 22.2663C14.5507 22.2663 15.1435 22.0687 15.8367 21.9784L16.7058 17.9675L12.8535 18.9648Z" fill="#65B339"/>
<path d="M13.4494 24.9478L11.3297 24.685L9.90479 29.9022L13.4494 24.9478Z" fill="#65B339"/>
<path d="M15.3613 25.2018L14.1081 31.5257L10.5567 32.5073L10.302 32.2048L15.3613 25.2018Z" fill="#65B339"/>
<g style="mix-blend-mode:screen" opacity="0.5">
<path d="M5.22218 29.7487L4.17777 25.9701L5.20373 23.9995L10.0745 24.5899L9.04893 28.6909L5.22218 29.7487Z" fill="#65B339"/>
</g>
<g style="mix-blend-mode:screen" opacity="0.5">
<path d="M11.4845 19.4445L10.5859 23.2256L5.81186 22.745L6.85996 20.4863L11.4845 19.4445Z" fill="#65B339"/>
</g>
<g style="mix-blend-mode:screen" opacity="0.5">
<path d="M12.8535 18.9648L11.6983 23.4291L14.1303 23.7069C14.1303 23.7069 13.4074 22.8202 14.5507 22.2663C14.5507 22.2663 15.1435 22.0687 15.8367 21.9784L16.7058 17.9675L12.8535 18.9648Z" fill="#65B339"/>
</g>
<g style="mix-blend-mode:screen" opacity="0.5">
<path d="M10.3332 28.3361L11.3297 24.685L13.4494 24.9478L11.1964 28.0975L10.3332 28.3361Z" fill="#65B339"/>
</g>
<g style="mix-blend-mode:screen" opacity="0.5">
<path d="M13.787 27.3814L15.3613 25.2018L14.9954 27.0473L13.787 27.3814Z" fill="#65B339"/>
</g>
<path d="M54.4259 29.6337L47.3903 31.5783C47.3903 31.5783 51.6237 29.7401 54.4259 29.6337Z" fill="#004F2A"/>
<path d="M46.1202 31.9294L34.7729 35.0659C34.7729 35.0659 41.7067 32.4812 46.1202 31.9294Z" fill="#004F2A"/>
<path d="M33.4737 35.4249L22.1264 38.5614C22.1264 38.5614 29.0603 35.9767 33.4737 35.4249Z" fill="#004F2A"/>
<path d="M20.7305 38.9473L12.9962 41.0851C12.9962 41.0851 17.668 39.1257 20.7305 38.9473Z" fill="#004F2A"/>
<path d="M11.7196 45.1057L9.15203 45.8154C9.15203 45.8154 10.588 44.7519 11.7196 45.1057Z" fill="#004F2A"/>
<path d="M14.2657 31.7319L10.2088 32.8532C10.2088 32.8532 12.5774 31.5304 14.2657 31.7319Z" fill="#004F2A"/>
<path d="M8.24422 33.3963L5.89857 34.0447C5.89857 34.0447 7.19578 33.018 8.24422 33.3963Z" fill="#004F2A"/>
<path d="M10.6485 23.5825L5.41613 22.9218C5.41613 22.9218 9.46002 23.2312 10.6485 23.5825Z" fill="#004F2A"/>
<path d="M11.4245 23.6735L14.7135 24.0903C14.7135 24.0903 12.5484 23.6683 11.4245 23.6735Z" fill="#004F2A"/>
<g style="mix-blend-mode:screen">
<path d="M48.8428 8.77922L18.0329 17.2953C18.0329 17.2953 47.1411 9.70327 48.8428 8.77922Z" fill="#65B339"/>
</g>
<path d="M16.6934 16.8959L6.80383 19.6295C6.80383 19.6295 13.9159 18.2069 16.6934 16.8959Z" fill="#65B339"/>
<path d="M2.98242 28.9288L7.79764 46.3496C7.79764 46.3496 2.87558 30.271 2.98242 28.9288Z" fill="#1B623B"/>
<path d="M9.62337 35.7196C9.62337 35.7196 9.62299 35.7183 9.62473 35.7192C9.69377 35.7662 10.9886 36.652 11.0469 37.3964C11.1016 37.813 10.8046 38.227 10.3415 38.355C9.87426 38.4841 9.40315 38.2737 9.24109 37.8794C8.92072 37.2059 9.5869 35.7958 9.62275 35.7227L9.62337 35.7196ZM10.7262 37.8419C10.7812 37.7797 10.8282 37.7095 10.8599 37.6375C10.7915 37.63 10.723 37.6225 10.655 37.6164C10.6421 37.6713 10.6221 37.7268 10.5927 37.7804C10.6376 37.7989 10.6819 37.8204 10.7262 37.8419ZM10.6723 37.4178L10.9066 37.353C10.9064 37.3413 10.9055 37.3328 10.9034 37.3201C10.8581 36.7453 9.86009 36.0638 9.80617 36.0288C9.80617 36.0288 10.6415 36.7567 10.6727 37.4191L10.6723 37.4178Z" fill="white"/>
<g style="mix-blend-mode:multiply" opacity="0.5">
<path d="M47.4619 29.4615L53.126 27.8959L53.5535 29.4428L47.8895 31.0084L47.4619 29.4615Z" fill="#65B339"/>
</g>
<g style="mix-blend-mode:multiply" opacity="0.5">
<path d="M34.9737 32.9134L45.0742 30.1216L45.5018 31.6685L35.4013 34.4603L34.9737 32.9134Z" fill="#65B339"/>
</g>
<g style="mix-blend-mode:multiply" opacity="0.5">
<path d="M22.168 36.4529L32.2686 33.661L32.6961 35.2079L22.5956 37.9997L22.168 36.4529Z" fill="#65B339"/>
</g>
<g style="mix-blend-mode:multiply" opacity="0.5">
<path d="M19.7383 37.1247L20.1545 38.6306L14.363 40.2314L14.6771 38.5236L19.7383 37.1247Z" fill="#65B339"/>
</g>
<g style="mix-blend-mode:multiply" opacity="0.5">
<path d="M12.4912 39.1277L11.5023 44.6899L9.43068 45.2625L8.07258 40.349L12.4912 39.1277Z" fill="#65B339"/>
</g>
<path d="M54.694 31.1613C54.694 31.1613 55.4133 31.0476 55.5325 31.8472C55.5325 31.8472 55.3985 31.2396 54.694 31.1613Z" fill="white"/>
<g style="mix-blend-mode:multiply" opacity="0.5">
<path d="M76.6341 23.8417C76.8588 23.7796 77.1157 23.9993 77.208 24.3335C77.3004 24.6677 77.1907 24.9858 76.9674 25.0476C76.7441 25.1093 76.4872 24.8896 76.3956 24.5581C76.3039 24.2266 76.4108 23.9034 76.6341 23.8417Z" fill="#C0BAC4"/>
</g>
<path d="M77.4211 15.8552C77.5078 16.1689 78.3853 19.6852 78.5456 20.265C78.7511 21.0084 78.7639 21.4497 78.3244 21.583C77.8001 21.7455 77.553 21.6361 77.1982 20.3525L76.1146 16.4321C75.9758 15.9301 75.9994 15.3804 76.4803 15.2474C76.9612 15.1145 77.2163 15.1145 77.4211 15.8552Z" fill="#262625"/>
<g style="mix-blend-mode:multiply" opacity="0.5">
<path d="M76.4789 15.2478C76.7146 15.1826 76.8959 15.1502 77.042 15.2199C76.9379 15.2222 76.8182 15.248 76.6784 15.2866C76.1989 15.4192 76.171 15.9584 76.3071 16.4508L77.3673 20.2867C77.7135 21.5389 77.9611 21.6452 78.4868 21.4822C78.5019 21.4781 78.5156 21.4743 78.5313 21.467C78.479 21.5182 78.4096 21.555 78.3226 21.582C77.7983 21.7445 77.5513 21.6351 77.1965 20.3515L76.1129 16.4311C75.9741 15.9291 75.9976 15.3793 76.4786 15.2464L76.4789 15.2478Z" fill="#1D1D1B"/>
</g>
<path style="mix-blend-mode:multiply" d="M76.5379 24.5142C76.6148 24.7925 76.8217 24.9806 76.9998 24.9313C77.1779 24.8821 77.2588 24.6145 77.1819 24.3362C77.105 24.058 76.8995 23.8696 76.72 23.9192C76.5405 23.9688 76.4614 24.2373 76.5379 24.5142Z" fill="url(#paint8_radial_38_1020)"/>
<path d="M76.5609 24.508C76.6321 24.7658 76.8235 24.9405 76.9893 24.8947C77.155 24.8489 77.2295 24.6007 77.1582 24.3429C77.087 24.0851 76.8964 23.9131 76.7306 23.9589C76.5648 24.0048 76.4892 24.2488 76.5609 24.508Z" fill="#262625"/>
<g style="mix-blend-mode:multiply" opacity="0.5">
<path d="M76.8156 24.0823C76.9252 24.052 77.0522 24.1593 77.0978 24.3243C77.1434 24.4894 77.0906 24.645 76.9796 24.6756C76.8686 24.7063 76.742 24.6004 76.6964 24.4353C76.6508 24.2702 76.7032 24.1133 76.8156 24.0823Z" fill="#C0BAC4"/>
</g>
<g style="mix-blend-mode:multiply" opacity="0.5">
<path d="M77.716 18.5532C77.8106 18.5271 77.9203 18.6201 77.9592 18.7606C77.998 18.9011 77.9523 19.04 77.8578 19.0661C77.7633 19.0923 77.6521 18.9997 77.6125 18.8564C77.5729 18.7132 77.6188 18.5801 77.716 18.5532Z" fill="#C0BAC4"/>
</g>
<path d="M77.2803 24.5116L79.1807 23.9863C79.5588 23.8818 79.805 23.7213 79.9329 23.4906C80.1169 23.1637 80.0142 22.803 79.9219 22.4849C79.9117 22.4481 79.9019 22.4126 79.8921 22.3772C79.8344 22.1685 79.7441 21.8205 79.6384 21.4166C79.4916 20.8536 79.3067 20.1471 79.1427 19.5537C78.8769 18.5921 78.1558 18.5124 77.8131 18.6012L77.809 18.6024C77.698 18.633 77.6327 18.7436 77.6613 18.8576C77.6914 18.9667 77.8058 19.0335 77.9154 19.0032C77.9778 18.9889 78.5242 18.8848 78.7399 19.6651C78.9039 20.2585 79.0856 20.9585 79.2327 21.5228C79.3392 21.9295 79.4299 22.2788 79.4883 22.4903C79.4981 22.5257 79.5087 22.5639 79.5188 22.6008C79.5947 22.8646 79.6669 23.1149 79.5689 23.2888C79.4995 23.4166 79.3305 23.5147 79.0702 23.5867L77.1698 24.1119C77.0575 24.143 76.9937 24.259 77.0246 24.3709C77.0555 24.4827 77.1697 24.5437 77.2807 24.513L77.2803 24.5116Z" fill="#2C2D2B"/>
<path d="M77.0492 24.1982C77.0775 24.1566 77.1189 24.1246 77.1695 24.1106L79.0699 23.5853C79.1836 23.5539 79.2786 23.5188 79.3569 23.4766C79.4576 23.4194 79.531 23.3595 79.5686 23.2874C79.6679 23.1131 79.5958 22.8629 79.5186 22.5994C79.5084 22.5626 79.4978 22.5244 79.488 22.4889C79.4296 22.2775 79.3393 21.9295 79.2324 21.5215C79.0857 20.9585 78.9036 20.2571 78.7396 19.6637C78.5239 18.8835 77.9775 18.9875 77.9151 19.0018C77.8055 19.0321 77.6912 18.9653 77.661 18.8562C77.6495 18.8095 77.6557 18.7622 77.6736 18.7206L77.6819 18.7183C78.0265 18.626 78.7462 18.706 79.0109 19.6636C79.1745 20.2556 79.358 20.9567 79.5047 21.5196C79.6094 21.9194 79.6996 22.2674 79.757 22.4748C79.7675 22.513 79.7769 22.5471 79.786 22.5798C79.8773 22.8996 79.9814 23.26 79.798 23.5837C79.7477 23.674 79.6789 23.7503 79.5927 23.8226C79.4815 23.89 79.3428 23.943 79.1825 23.9873L77.2821 24.5126C77.1698 24.5437 77.0555 24.4769 77.0261 24.3705C77.0091 24.3091 77.0225 24.251 77.051 24.1991L77.0492 24.1982Z" fill="#686867"/>
<g style="mix-blend-mode:multiply" opacity="0.5">
<path d="M77.0493 24.1981C77.0763 24.1569 77.119 24.1246 77.1697 24.1106L79.07 23.5853C79.1837 23.5539 79.2787 23.5188 79.357 23.4766C79.4577 23.4194 79.5311 23.3595 79.5687 23.2874C79.668 23.1131 79.5959 22.8629 79.5187 22.5994C79.5085 22.5626 79.4979 22.5244 79.4881 22.4889C79.4297 22.2775 79.3394 21.9295 79.2325 21.5214C79.0858 20.9585 78.9037 20.2571 78.7397 19.6637C78.5757 19.0703 78.212 18.9873 78.0246 18.9921C78.1737 18.9715 78.6158 18.9755 78.8051 19.6603C78.9687 20.2523 79.1504 20.9524 79.2983 21.5194C79.4037 21.922 79.4937 22.2744 79.5518 22.4845C79.5624 22.5227 79.5722 22.5582 79.5841 22.596C79.6614 22.8595 79.7313 23.1074 79.6348 23.2809C79.5958 23.3533 79.5249 23.417 79.4213 23.4691C79.343 23.5113 79.248 23.5464 79.1343 23.5778L77.2339 24.1031C77.0969 24.1409 77.0192 24.2491 77.0476 24.1972L77.0493 24.1981Z" fill="#C0BAC4"/>
</g>
<g style="mix-blend-mode:multiply" opacity="0.5">
<path d="M76.7886 24.21C76.8227 24.1624 76.8697 24.1245 76.9286 24.1082L79.1318 23.4992C79.2647 23.4625 79.3744 23.4219 79.4639 23.3722C79.362 23.4679 79.1973 23.5443 78.9712 23.6067L76.7886 24.21Z" fill="#C0BAC4"/>
</g>
<defs>
<linearGradient id="paint0_linear_38_1020" x1="41.25" y1="41.8869" x2="39.145" y2="34.2712" gradientUnits="userSpaceOnUse">
<stop stop-color="#B6B8B9"/>
<stop offset="1" stop-color="#242626"/>
</linearGradient>
<linearGradient id="paint1_linear_38_1020" x1="11.2578" y1="39.9751" x2="14.0216" y2="49.9739" gradientUnits="userSpaceOnUse">
<stop offset="0.03" stop-color="white"/>
<stop offset="0.46" stop-color="#B6B8B9"/>
<stop offset="1" stop-color="#79797B"/>
</linearGradient>
<linearGradient id="paint2_linear_38_1020" x1="60.0361" y1="9.64649" x2="60.0174" y2="14.3048" gradientUnits="userSpaceOnUse">
<stop offset="0.03" stop-color="white"/>
<stop offset="0.26" stop-color="#DCDDDD"/>
<stop offset="0.48" stop-color="#C0C2C2"/>
<stop offset="0.6" stop-color="#B6B8B9"/>
<stop offset="0.7" stop-color="#B1B3B4"/>
<stop offset="0.8" stop-color="#A4A6A7"/>
<stop offset="0.91" stop-color="#8F9092"/>
<stop offset="1" stop-color="#79797B"/>
</linearGradient>
<linearGradient id="paint3_linear_38_1020" x1="57.3667" y1="22.2542" x2="55.4033" y2="22.7968" gradientUnits="userSpaceOnUse">
<stop offset="0.03" stop-color="white"/>
<stop offset="0.46" stop-color="#B6B8B9"/>
<stop offset="1" stop-color="#79797B"/>
</linearGradient>
<linearGradient id="paint4_linear_38_1020" x1="68.2119" y1="11.6159" x2="92.3772" y2="37.0262" gradientUnits="userSpaceOnUse">
<stop stop-color="#A4DCE7"/>
<stop offset="0.28" stop-color="#98D9E9"/>
<stop offset="0.8" stop-color="#78D1F1"/>
<stop offset="1" stop-color="#6ACEF5"/>
</linearGradient>
<linearGradient id="paint5_linear_38_1020" x1="76.7666" y1="15.4621" x2="69.0337" y2="17.5996" gradientUnits="userSpaceOnUse">
<stop stop-color="#A4DCE7"/>
<stop offset="0.28" stop-color="#98D9E9"/>
<stop offset="0.8" stop-color="#78D1F1"/>
<stop offset="1" stop-color="#6ACEF5"/>
</linearGradient>
<radialGradient id="paint6_radial_38_1020" cx="0" cy="0" r="1" gradientUnits="userSpaceOnUse" gradientTransform="translate(64.649 35.3696) rotate(164.549) scale(6.83028 6.80023)">
<stop offset="0.39" stop-color="#1E211D"/>
<stop offset="0.47" stop-color="#232521"/>
<stop offset="0.56" stop-color="#313330"/>
<stop offset="0.66" stop-color="#494A47"/>
<stop offset="0.71" stop-color="#595956"/>
<stop offset="0.76" stop-color="#686865"/>
<stop offset="0.85" stop-color="#91908F"/>
<stop offset="0.92" stop-color="#B3B2B1"/>
</radialGradient>
<radialGradient id="paint7_radial_38_1020" cx="0" cy="0" r="1" gradientUnits="userSpaceOnUse" gradientTransform="translate(15.5784 17.163) rotate(164.549) scale(6.83028 6.80023)">
<stop offset="0.39" stop-color="#1E211D"/>
<stop offset="0.47" stop-color="#232521"/>
<stop offset="0.56" stop-color="#313330"/>
<stop offset="0.66" stop-color="#494A47"/>
<stop offset="0.71" stop-color="#595956"/>
<stop offset="0.76" stop-color="#686865"/>
<stop offset="0.85" stop-color="#91908F"/>
<stop offset="0.92" stop-color="#B3B2B1"/>
</radialGradient>
<radialGradient id="paint8_radial_38_1020" cx="0" cy="0" r="1" gradientUnits="userSpaceOnUse" gradientTransform="translate(76.8772 24.4205) rotate(164.549) scale(0.33661 0.523639)">
<stop stop-color="white"/>
<stop offset="0.27" stop-color="white"/>
<stop offset="0.38" stop-color="#FCFCFC"/>
<stop offset="0.45" stop-color="#F4F3F5"/>
<stop offset="0.51" stop-color="#E7E5E8"/>
<stop offset="0.56" stop-color="#D4D0D7"/>
<stop offset="0.6" stop-color="#C0BAC4"/>
<stop offset="0.62" stop-color="#C8C3CB"/>
<stop offset="0.68" stop-color="#E0DDE2"/>
<stop offset="0.74" stop-color="#F1F0F2"/>
<stop offset="0.8" stop-color="#FBFBFB"/>
<stop offset="0.86" stop-color="white"/>
<stop offset="0.91" stop-color="#FCFCFC"/>
<stop offset="0.94" stop-color="#F4F3F5"/>
<stop offset="0.96" stop-color="#E6E4E8"/>
<stop offset="0.98" stop-color="#D3CFD6"/>
<stop offset="1" stop-color="#C0BAC4"/>
</radialGradient>
</defs>
</svg>
