<svg width="137" height="125" viewBox="0 0 137 125" fill="none" xmlns="http://www.w3.org/2000/svg">
<g clipPath="url(#clip0_9_2250)">
<path d="M94.6738 124.685H55.8006C49.9701 124.685 45.2266 119.912 45.2266 114.045V10.6401C45.2266 4.77314 49.9701 0 55.8006 0H94.6738C100.504 0 105.248 4.77314 105.248 10.6401C105.971 52.1643 107.205 98.6649 105.248 114.045C105.248 119.912 100.504 124.685 94.6738 124.685Z" fill="#3F3D56"/>
<path d="M105.789 38.0357C105.542 38.0357 105.342 38.2376 105.342 38.4859V52.8899C105.342 53.1382 105.542 53.34 105.789 53.34C106.036 53.34 106.236 53.1382 106.236 52.8899V38.4859C106.236 38.2376 106.036 38.0357 105.789 38.0357Z" fill="#3F3D56"/>
<path d="M104.241 10.6402V114.043C104.241 119.15 100.291 123.327 95.2962 123.651H95.2939C95.2201 123.656 95.1463 123.66 95.0703 123.662C94.9383 123.669 94.8063 123.671 94.6721 123.671C94.6721 123.671 94.1801 123.635 93.2809 123.568C92.3729 123.5 91.051 123.399 89.4026 123.266C88.9083 123.228 88.3871 123.185 87.8369 123.14C86.7409 123.05 85.5376 122.951 84.2471 122.839C83.7326 122.796 83.2003 122.749 82.6568 122.701C79.8789 122.461 76.7677 122.179 73.4865 121.86C72.9318 121.808 72.3726 121.754 71.809 121.698C71.6614 121.682 46.2324 115.25 46.2324 114.043V10.6402C46.2324 5.32192 50.5156 1.01195 55.8009 1.01195H61.5133C62.4258 1.01195 63.1595 1.72765 63.2377 2.64366C63.2444 2.70443 63.2512 2.76519 63.2624 2.82596C63.4279 3.74647 64.2666 4.3879 65.1971 4.3879H85.2759C86.2064 4.3879 87.0451 3.74647 87.2106 2.82596C87.2218 2.76519 87.2285 2.70443 87.2352 2.64366C87.3135 1.72765 88.0471 1.01195 88.9597 1.01195H94.6721C99.9574 1.01195 104.241 5.32192 104.241 10.6402Z" fill="white"/>
<path d="M45.002 27.2327C44.7553 27.2327 44.5547 27.4346 44.5547 27.6828V31.2838C44.5547 31.5321 44.7553 31.734 45.002 31.734C45.2487 31.734 45.4494 31.5321 45.4494 31.2838V27.6828C45.4494 27.4346 45.2487 27.2327 45.002 27.2327Z" fill="#3F3D56"/>
<path d="M45.002 38.0357C44.7553 38.0357 44.5547 38.2376 44.5547 38.4859V45.4628C44.5547 45.7111 44.7553 45.913 45.002 45.913C45.2487 45.913 45.4494 45.7111 45.4494 45.4628V38.4859C45.4494 38.2376 45.2487 38.0357 45.002 38.0357Z" fill="#3F3D56"/>
<path d="M45.002 47.9385C44.7553 47.9385 44.5547 48.1404 44.5547 48.3886V55.3656C44.5547 55.6139 44.7553 55.8157 45.002 55.8157C45.2487 55.8157 45.4494 55.6139 45.4494 55.3656V48.3886C45.4494 48.1404 45.2487 47.9385 45.002 47.9385Z" fill="#3F3D56"/>
<path d="M61.3665 2.58826H52.794C52.7524 2.58826 52.7188 2.62214 52.7188 2.66395V3.63788C52.7188 3.67968 52.7524 3.71357 52.794 3.71357H61.3665C61.408 3.71357 61.4417 3.67968 61.4417 3.63788V2.66395C61.4417 2.62214 61.408 2.58826 61.3665 2.58826Z" fill="#E6E6E6"/>
<path d="M90.3732 3.71358C90.8673 3.71358 91.2678 3.31052 91.2678 2.81332C91.2678 2.31613 90.8673 1.91307 90.3732 1.91307C89.8791 1.91307 89.4785 2.31613 89.4785 2.81332C89.4785 3.31052 89.8791 3.71358 90.3732 3.71358Z" fill="#E6E6E6"/>
<path d="M92.8341 3.71358C93.3282 3.71358 93.7288 3.31052 93.7288 2.81332C93.7288 2.31613 93.3282 1.91307 92.8341 1.91307C92.34 1.91307 91.9395 2.31613 91.9395 2.81332C91.9395 3.31052 92.34 3.71358 92.8341 3.71358Z" fill="#E6E6E6"/>
<path d="M95.2931 3.71358C95.7872 3.71358 96.1878 3.31052 96.1878 2.81332C96.1878 2.31613 95.7872 1.91307 95.2931 1.91307C94.799 1.91307 94.3984 2.31613 94.3984 2.81332C94.3984 3.31052 94.799 3.71358 95.2931 3.71358Z" fill="#E6E6E6"/>
<path d="M3.4707 124.71C3.4707 124.871 3.59923 125 3.75927 125H136.711C136.871 125 137 124.871 137 124.71C137 124.549 136.871 124.419 136.711 124.419H3.75927C3.59923 124.419 3.4707 124.549 3.4707 124.71Z" fill="#CCCCCC"/>
<path d="M45.8613 122.803L43.1349 122.802L41.8379 112.22L45.8619 112.221L45.8613 122.803Z" fill="#FFB6B6"/>
<path d="M36.5203 122.74C36.4354 122.884 36.3906 123.349 36.3906 123.516C36.3906 124.03 36.8049 124.447 37.316 124.447H45.7594C46.1081 124.447 46.3907 124.163 46.3907 123.812V123.458C46.3907 123.458 46.8084 122.395 45.9485 121.085C45.9485 121.085 44.8797 122.111 43.2826 120.504L42.8116 119.645L39.4025 122.154L37.5129 122.388C37.0995 122.439 36.733 122.38 36.5203 122.74Z" fill="#2F2E41"/>
<path d="M30.783 108.105L28.0566 108.096L26.793 97.5094L30.8169 97.5225L30.783 108.105Z" fill="#FFB6B6"/>
<path d="M21.4427 108.012C21.3573 108.156 21.3111 108.62 21.3106 108.788C21.3089 109.302 21.7219 109.72 22.233 109.722L30.6764 109.749C31.025 109.75 31.3086 109.466 31.3097 109.115L31.3108 108.762C31.3108 108.762 31.7318 107.7 30.876 106.387C30.876 106.387 29.804 107.409 28.212 105.797L27.7437 104.937L24.3268 107.435L22.4364 107.663C22.0228 107.713 21.6565 107.653 21.4427 108.012Z" fill="#2F2E41"/>
<path d="M41.8853 58.5599L38.4905 58.8039C38.4905 58.8039 26.9978 65.379 26.0279 66.843C25.0579 68.307 23.7243 70.381 24.9367 72.577C26.1491 74.773 25.2264 101.362 25.2264 101.362L31.02 100.043L34.732 72.2238L42.4915 71.1258C42.4915 71.1258 45.1588 76.9165 44.1889 81.7072C43.219 86.4978 42.734 89.4258 42.734 89.4258L41.5216 117.73L46.25 117.608L50.4935 91.3778L57.768 70.6378L48.3111 59.4139L41.8853 58.5599Z" fill="#2F2E41"/>
<path d="M58.6175 28.5479L51.5855 29.2799L50.858 31.7199L44.0684 35.3799L46.2508 50.7519L44.5534 53.4359L45.2809 56.1199C45.2809 56.1199 43.341 56.3639 43.5835 57.8279L39.2188 58.5599C39.2188 58.5599 45.0078 59.7491 46.2355 65.6205C47.4632 71.4918 57.6476 72.2238 57.6476 72.2238L65.6496 47.0919L66.377 32.2079L60.7999 30.7439L58.6175 28.5479Z" fill="#E6E6E6"/>
<path d="M54.9099 27.6221C57.929 27.6221 60.3765 25.1593 60.3765 22.1213C60.3765 19.0834 57.929 16.6206 54.9099 16.6206C51.8908 16.6206 49.4434 19.0834 49.4434 22.1213C49.4434 25.1593 51.8908 27.6221 54.9099 27.6221Z" fill="#FFB6B6"/>
<path d="M52.0705 27.0839C52.0705 27.0839 47.2208 26.8399 47.7058 22.936C46.5055 18.7786 47.5679 16.0793 51.3431 15.128C51.3431 15.128 52.313 14.884 52.5555 14.884C55.7449 14.884 57.4052 15.86 57.4052 15.86C57.4052 15.86 57.1627 14.8936 57.4052 15.1328C57.6477 15.372 57.8902 15.86 57.8902 15.86C57.8902 15.86 60.315 17.08 60.315 19.52C60.315 21.96 60.315 20.984 60.315 20.984C60.315 20.984 59.83 20.984 59.3451 19.52C58.8601 18.056 55.7202 19.032 55.7202 19.032L55.9503 19.52L55.2228 19.276L54.4954 20.008L54.0104 19.764C54.0104 19.764 52.0705 19.764 52.313 19.764C52.5555 19.764 52.3865 21.4222 52.3865 21.4222L50.6156 23.424L52.5555 27.0839H52.0705Z" fill="#2F2E41"/>
<path d="M26.2319 56.2063C24.8513 56.9644 24.1208 58.2957 24.6003 59.1797C25.0798 60.0637 26.5876 60.1657 27.9682 59.4076C28.5725 59.0757 29.0522 58.634 29.3605 58.1681L35.1702 54.8816L33.5795 52.1711L28.021 55.6986C27.4649 55.7074 26.8362 55.8744 26.2319 56.2063Z" fill="#FFB6B6"/>
<path d="M45.8251 35.4938C45.8251 35.4938 43.5476 34.6213 42.763 35.6715C41.9783 36.7218 36.7947 49.4661 36.7947 49.4661L29.1895 53.4628L31.3281 57.2103L41.1214 53.9294L47.5828 42.0385L45.8251 35.4938Z" fill="#E6E6E6"/>
<path d="M117.641 77.3473V103.211C117.641 105.499 115.791 107.359 113.518 107.359H49.9875C47.7144 107.359 45.8652 105.499 45.8652 103.211V77.3473C45.8652 75.0601 47.7144 73.1993 49.9875 73.1993H113.518C115.791 73.1993 117.641 75.0601 117.641 77.3473Z" fill="white"/>
<path d="M117.641 77.3473V103.211C117.641 105.499 115.791 107.359 113.518 107.359H49.9875C47.7144 107.359 45.8652 105.499 45.8652 103.211V77.3473C45.8652 75.0601 47.7144 73.1993 49.9875 73.1993H113.518C115.791 73.1993 117.641 75.0601 117.641 77.3473ZM113.518 106.871C115.527 106.871 117.156 105.233 117.156 103.211V90.1717C117.156 81.0676 109.821 73.6873 100.774 73.6873H49.9875C47.9787 73.6873 46.3502 75.326 46.3502 77.3473V103.211C46.3502 105.233 47.9787 106.871 49.9875 106.871H113.518Z" fill="#3F3D56"/>
<path d="M74.3844 88.8254H66.0864C65.8772 88.8254 65.707 88.9966 65.707 89.2071C65.707 89.4176 65.8772 89.5889 66.0864 89.5889H74.3844C74.5936 89.5889 74.7638 89.4176 74.7638 89.2071C74.7638 88.9966 74.5936 88.8254 74.3844 88.8254Z" fill="#66A57E"/>
<path d="M86.9938 88.8254H78.6958C78.4866 88.8254 78.3164 88.9966 78.3164 89.2071C78.3164 89.4176 78.4866 89.5889 78.6958 89.5889H86.9938C87.203 89.5889 87.3731 89.4176 87.3731 89.2071C87.3731 88.9966 87.203 88.8254 86.9938 88.8254Z" fill="#66A57E"/>
<path d="M74.3844 92.9993H66.0864C65.8772 92.9993 65.707 93.1705 65.707 93.381C65.707 93.5915 65.8772 93.7628 66.0864 93.7628H74.3844C74.5936 93.7628 74.7638 93.5915 74.7638 93.381C74.7638 93.1705 74.5936 92.9993 74.3844 92.9993Z" fill="#66A57E"/>
<path d="M86.9938 92.9993H78.6958C78.4866 92.9993 78.3164 93.1705 78.3164 93.381C78.3164 93.5915 78.4866 93.7628 78.6958 93.7628H86.9938C87.203 93.7628 87.3731 93.5915 87.3731 93.381C87.3731 93.1705 87.203 92.9993 86.9938 92.9993Z" fill="#66A57E"/>
<path d="M99.9825 93.381C99.9825 93.1705 99.8124 92.9993 99.6032 92.9993H91.3052C91.096 92.9993 90.9258 93.1705 90.9258 93.381C90.9258 93.5915 91.096 93.7628 91.3052 93.7628H99.6032C99.8124 93.7628 99.9825 93.5915 99.9825 93.381Z" fill="#66A57E"/>
<path d="M69.5348 85.4927C69.744 85.4927 69.9142 85.3214 69.9142 85.1109C69.9142 84.9004 69.744 84.7292 69.5348 84.7292H61.2368C61.0276 84.7292 60.8574 84.9004 60.8574 85.1109C60.8574 85.3214 61.0276 85.4927 61.2368 85.4927H69.5348Z" fill="#66A57E"/>
<path d="M93.9732 85.3374H102.271C102.48 85.3374 102.65 85.1661 102.65 84.9556C102.65 84.7451 102.48 84.5739 102.271 84.5739H93.9732C93.764 84.5739 93.5938 84.7451 93.5938 84.9556C93.5938 85.1661 93.764 85.3374 93.9732 85.3374Z" fill="#66A57E"/>
<path d="M73.0298 85.4177H90.2333C90.4425 85.4177 90.6127 85.2464 90.6127 85.0359C90.6127 84.8254 90.4425 84.6542 90.2333 84.6542H73.0298C72.8206 84.6542 72.6504 84.8254 72.6504 85.0359C72.6504 85.2464 72.8206 85.4177 73.0298 85.4177Z" fill="#66A57E"/>
<path d="M79.7985 96.7914H71.5005C71.2913 96.7914 71.1211 96.9626 71.1211 97.1731C71.1211 97.3836 71.2913 97.5549 71.5005 97.5549H79.7985C80.0077 97.5549 80.1778 97.3836 80.1778 97.1731C80.1778 96.9626 80.0077 96.7914 79.7985 96.7914Z" fill="#66A57E"/>
<path d="M106.598 77.1523V103.016C106.598 105.304 104.749 107.164 102.476 107.164H76.7726C74.4996 107.164 72.6504 105.304 72.6504 103.016V77.1523C72.6504 74.8651 74.4996 73.0043 76.7726 73.0043H102.476C104.749 73.0043 106.598 74.8651 106.598 77.1523Z" fill="white"/>
<path d="M106.598 77.1523V103.016C106.598 105.304 104.749 107.164 102.476 107.164H76.7726C74.4996 107.164 72.6504 105.304 72.6504 103.016V77.1523C72.6504 74.8651 74.4996 73.0043 76.7726 73.0043H102.476C104.749 73.0043 106.598 74.8651 106.598 77.1523ZM100.881 106.676C103.771 106.676 106.113 104.319 106.113 101.412V89.9767C106.113 80.8726 98.7788 73.4923 89.7312 73.4923H76.7726C74.7638 73.4923 73.1354 75.131 73.1354 77.1523V99.4077C73.1354 103.422 76.3694 106.676 80.3588 106.676L100.881 106.676Z" fill="#3F3D56"/>
<path d="M93.0465 83.5676H84.7486C84.5394 83.5676 84.3691 83.3963 84.3691 83.1858C84.3691 82.9753 84.5394 82.8041 84.7486 82.8041H93.0465C93.2557 82.8041 93.4259 82.9753 93.4259 83.1858C93.4259 83.3963 93.2557 83.5676 93.0465 83.5676Z" fill="#66A57E"/>
<path d="M93.0465 91.7083H84.7486C84.5394 91.7083 84.3691 91.537 84.3691 91.3265C84.3691 91.116 84.5394 90.9448 84.7486 90.9448H93.0465C93.2557 90.9448 93.4259 91.116 93.4259 91.3265C93.4259 91.537 93.2557 91.7083 93.0465 91.7083Z" fill="#66A57E"/>
<path d="M88.9235 102.932H80.6255C80.4163 102.932 80.2461 102.761 80.2461 102.551C80.2461 102.34 80.4163 102.169 80.6255 102.169H88.9235C89.1327 102.169 89.3028 102.34 89.3028 102.551C89.3028 102.761 89.1327 102.932 88.9235 102.932Z" fill="#66A57E"/>
<path d="M97.499 87.6406H80.2954C80.0862 87.6406 79.916 87.4693 79.916 87.2588C79.916 87.0483 80.0862 86.8771 80.2954 86.8771H97.499C97.7082 86.8771 97.8783 87.0483 97.8783 87.2588C97.8783 87.4693 97.7082 87.6406 97.499 87.6406Z" fill="#66A57E"/>
<path d="M101.762 62.8205C101.762 54.7521 94.9849 50.3136 87.2435 48.2114C77.3184 45.5162 70.0495 50.9701 72.7252 62.8205C73.3316 65.5063 74.782 68.6431 76.5774 71.3264H90.8243C95.5833 68.2087 101.762 69.083 101.762 62.8205Z" fill="#66A57E"/>
<path d="M87.0303 78.0729C87.8407 76.5183 88.8681 75.3967 90.0003 74.543H76.6562C80.0907 79.4795 84.6453 82.6478 87.0303 78.0729Z" fill="#66A57E"/>
<path d="M85.4911 54.183C86.3478 54.183 87.0422 54.8818 87.0422 55.7439V58.8655H83.94V55.7439C83.94 54.8818 84.6344 54.183 85.4911 54.183ZM87.8178 58.8655V55.7438C87.8178 54.4508 86.7761 53.4026 85.4911 53.4026C84.2061 53.4026 83.1644 54.4508 83.1644 55.7438V58.8655C82.3077 58.8655 81.6133 59.5643 81.6133 60.4263V64.3283C81.6133 65.1903 82.3077 65.8892 83.1644 65.8892H87.8178C88.6744 65.8892 89.3689 65.1903 89.3689 64.3283V60.4263C89.3689 59.5643 88.6744 58.8655 87.8178 58.8655ZM83.1644 59.6459H87.8178C88.2461 59.6459 88.5933 59.9953 88.5933 60.4263V64.3283C88.5933 64.7593 88.2461 65.1087 87.8178 65.1087H83.1644C82.7361 65.1087 82.3889 64.7593 82.3889 64.3283V60.4263C82.3889 59.9953 82.7361 59.6459 83.1644 59.6459Z" fill="white"/>
<path d="M63.3249 72.3564C63.1379 73.9278 63.7918 75.2987 64.7856 75.4185C65.7794 75.5382 66.7366 74.3615 66.9236 72.7901C67.0055 72.1022 66.9261 71.4528 66.7278 70.9299L67.4372 64.2616L64.3203 63.9932L63.9517 70.5954C63.6362 71.0564 63.4068 71.6686 63.3249 72.3564Z" fill="#FFB6B6"/>
<path d="M64.0738 32.5739C64.0738 32.5739 67.4685 31.5979 68.196 33.0619C68.9234 34.5259 70.6208 53.8019 70.6208 53.8019L67.3473 69.1883L63.5888 68.1979L65.5287 52.5819L62.8613 40.8699L64.0738 32.5739Z" fill="#E6E6E6"/>
<path d="M14.1853 79.3827C22.0197 79.3827 28.3707 72.992 28.3707 65.1087C28.3707 57.2254 22.0197 50.8348 14.1853 50.8348C6.351 50.8348 0 57.2254 0 65.1087C0 72.992 6.351 79.3827 14.1853 79.3827Z" fill="#66A57E"/>
<path d="M14.1845 58.7186C15.1865 58.7186 15.9989 59.5361 15.9989 60.5444V64.1959H12.37V60.5444C12.37 59.536 13.1824 58.7186 14.1845 58.7186ZM16.9061 64.1958V60.5444C16.9061 59.0319 15.6876 57.8058 14.1845 57.8058C12.6813 57.8058 11.4628 59.0319 11.4628 60.5444V64.1958C10.4608 64.1958 9.64844 65.0133 9.64844 66.0216V70.5859C9.64844 71.5943 10.4608 72.4117 11.4628 72.4117H16.9061C17.9081 72.4117 18.7205 71.5943 18.7205 70.5859V66.0216C18.7205 65.0133 17.9081 64.1958 16.9061 64.1958ZM11.4628 65.1087H16.9061C17.4071 65.1087 17.8133 65.5174 17.8133 66.0216V70.5859C17.8133 71.0901 17.4071 71.4988 16.9061 71.4988H11.4628C10.9618 71.4988 10.5556 71.0901 10.5556 70.5859V66.0216C10.5556 65.5174 10.9618 65.1087 11.4628 65.1087Z" fill="white"/>
</g>
<defs>
<clipPath id="clip0_9_2250">
<rect width="137" height="125" fill="white"/>
</clipPath>
</defs>
</svg>
