<svg width="42" height="64" viewBox="0 0 42 64" fill="none" xmlns="http://www.w3.org/2000/svg">
<path d="M36.5386 57.1111H5.625V59.4601H36.5386V57.1111Z" fill="#1D1D1B"/>
<path d="M7.06912 62.305C7.06912 62.9674 6.52983 63.5067 5.87109 63.5067C5.20873 63.5067 4.66943 62.971 4.66943 62.305V53.213C4.66943 52.5506 5.20873 52.0113 5.87109 52.0113C6.53345 52.0113 7.06912 52.5506 7.06912 53.213V62.305Z" fill="#4F514F"/>
<path d="M5.86761 52.0113C5.86761 52.0113 5.84952 52.0113 5.84229 52.0113V63.4994C5.84229 63.4994 5.86037 63.4994 5.86761 63.4994C6.52997 63.4994 7.06565 62.9637 7.06565 62.2978V53.2057C7.06565 52.5434 6.52635 52.0041 5.86761 52.0041V52.0113Z" fill="#2A2B2A"/>
<path d="M37.3347 62.305C37.3347 62.9674 36.7991 63.5067 36.1367 63.5067C35.4744 63.5067 34.9351 62.971 34.9351 62.305V53.213C34.9351 52.5506 35.4707 52.0113 36.1367 52.0113C36.7991 52.0113 37.3347 52.5506 37.3347 53.213V62.305Z" fill="#4F514F"/>
<path d="M35.9813 52.0294C35.3913 52.1054 34.9316 52.6013 34.9316 53.213V62.305C34.9316 62.9167 35.3913 63.4162 35.9813 63.4922V52.033V52.0294Z" fill="#2A2B2A"/>
<path d="M29.2341 0.912099C29.2341 0.912099 28.6261 0.0615305 27.2905 0H14.7093C13.3738 0.0615305 12.7657 0.912099 12.7657 0.912099L9.9751 5.03826H32.0247L29.2341 0.912099Z" fill="#E41831"/>
<path d="M28.308 1.37537C28.308 1.37537 27.7687 0.622529 26.5851 0.568237H15.4155C14.232 0.622529 13.6927 1.37537 13.6927 1.37537L11.2134 5.03825H30.7873L28.308 1.37537Z" fill="#322507"/>
<path d="M1.0459 11.8971C1.72273 16.606 6.837 52.1055 7.75272 56.789C8.73359 61.8092 13.4606 61.6029 13.4606 61.6029H28.5392C28.5392 61.6029 33.2662 61.8092 34.2506 56.789C35.1664 52.1055 40.2806 16.606 40.9575 11.8971H1.04951H1.0459Z" fill="#EF2305"/>
<path d="M40.8199 12.8237C40.8778 12.4436 40.9213 12.1324 40.9538 11.8971H1.0459C1.07847 12.1324 1.12552 12.4436 1.17982 12.8237H40.8199Z" fill="#CC0402"/>
<path d="M22.1727 10.1851L40.8671 9.60961L37.8739 5.4002C37.8739 5.4002 37.1463 4.10444 35.771 4.18768C34.7322 4.24921 26.1975 4.21664 22.0967 4.19854V4.18768C22.0967 4.18768 21.6877 4.18768 21.0036 4.1913C20.3196 4.1913 19.9106 4.18768 19.9106 4.18768V4.19854C15.8097 4.22026 7.2751 4.24921 6.23632 4.18768C4.86093 4.10444 4.13342 5.4002 4.13342 5.4002L1.14014 9.60961L19.8346 10.1851V10.2575L21.0073 10.2213L22.1799 10.2575V10.1851H22.1727Z" fill="#E91312"/>
<path d="M42 8.92194H0V12.5631H42V8.92194Z" fill="#EF2305"/>
<g style="mix-blend-mode:color-dodge">
<path d="M42 8.92194H0V9.7725H42V8.92194Z" fill="#EC641C"/>
</g>
<path d="M42 10.9452H0V12.5631H42V10.9452Z" fill="#E02B16"/>
<path d="M15.5504 27.2045C16.1072 27.2083 16.6489 27.3068 17.1754 27.5C17.7057 27.6894 18.183 28 18.6072 28.4318C19.0315 28.8598 19.3686 29.4337 19.6186 30.1534C19.8686 30.8731 19.9936 31.7633 19.9936 32.8239C19.9974 33.8239 19.8913 34.7178 19.6754 35.5057C19.4633 36.2898 19.1584 36.9527 18.7607 37.4943C18.3629 38.036 17.8838 38.4489 17.3232 38.733C16.7625 39.017 16.1319 39.1591 15.4311 39.1591C14.6963 39.1591 14.0447 39.0152 13.4766 38.7273C12.9122 38.4394 12.4557 38.0455 12.1072 37.5455C11.7588 37.0455 11.5447 36.4735 11.4652 35.8295H13.5391C13.6451 36.2917 13.861 36.6591 14.1868 36.9318C14.5163 37.2008 14.9311 37.3352 15.4311 37.3352C16.2379 37.3352 16.8591 36.9848 17.2947 36.2841C17.7304 35.5833 17.9482 34.6098 17.9482 33.3636H17.8686C17.683 33.697 17.4425 33.9848 17.147 34.2273C16.8516 34.4659 16.5163 34.6496 16.1413 34.7784C15.7701 34.9072 15.3762 34.9716 14.9595 34.9716C14.2777 34.9716 13.6641 34.8087 13.1186 34.483C12.5769 34.1572 12.147 33.7102 11.8288 33.142C11.5144 32.5739 11.3554 31.9242 11.3516 31.1932C11.3516 30.4356 11.5258 29.7557 11.8743 29.1534C12.2266 28.5473 12.7171 28.0701 13.3459 27.7216C13.9747 27.3693 14.7095 27.197 15.5504 27.2045ZM15.5561 28.9091C15.147 28.9091 14.7777 29.0095 14.4482 29.2102C14.1224 29.4072 13.8648 29.6761 13.6754 30.017C13.4898 30.3542 13.397 30.7311 13.397 31.1477C13.4008 31.5606 13.4936 31.9356 13.6754 32.2727C13.861 32.6098 14.1129 32.8769 14.4311 33.0739C14.7531 33.2708 15.1205 33.3693 15.5334 33.3693C15.8402 33.3693 16.1262 33.3106 16.3913 33.1932C16.6565 33.0758 16.8875 32.9129 17.0845 32.7045C17.2853 32.4924 17.4406 32.2519 17.5504 31.983C17.6641 31.714 17.719 31.4299 17.7152 31.1307C17.7152 30.733 17.6205 30.3655 17.4311 30.0284C17.2455 29.6913 16.9898 29.4205 16.6641 29.2159C16.3421 29.0114 15.9728 28.9091 15.5561 28.9091ZM26.1868 39.2216C25.2512 39.2216 24.4482 38.9848 23.7777 38.5114C23.111 38.0341 22.5978 37.3466 22.2379 36.4489C21.8819 35.5473 21.7038 34.4621 21.7038 33.1932C21.7076 31.9242 21.8875 30.8447 22.2436 29.9545C22.6035 29.0606 23.1167 28.3788 23.7834 27.9091C24.4538 27.4394 25.255 27.2045 26.1868 27.2045C27.1186 27.2045 27.9197 27.4394 28.5902 27.9091C29.2607 28.3788 29.7739 29.0606 30.13 29.9545C30.4898 30.8485 30.6697 31.928 30.6697 33.1932C30.6697 34.4659 30.4898 35.553 30.13 36.4545C29.7739 37.3523 29.2607 38.0379 28.5902 38.5114C27.9235 38.9848 27.1224 39.2216 26.1868 39.2216ZM26.1868 37.4432C26.9141 37.4432 27.4879 37.0852 27.9084 36.3693C28.3326 35.6496 28.5447 34.5909 28.5447 33.1932C28.5447 32.2689 28.4482 31.4924 28.255 30.8636C28.0618 30.2348 27.7891 29.7614 27.4368 29.4432C27.0845 29.1212 26.6679 28.9602 26.1868 28.9602C25.4633 28.9602 24.8913 29.3201 24.4709 30.0398C24.0504 30.7557 23.8383 31.8068 23.8345 33.1932C23.8307 34.1212 23.9235 34.9015 24.1129 35.5341C24.3061 36.1667 24.5788 36.6439 24.9311 36.9659C25.2834 37.2841 25.7019 37.4432 26.1868 37.4432Z" fill="white"/>
</svg>
